<svg width="311" height="311" viewBox="0 0 311 311" fill="none" xmlns="http://www.w3.org/2000/svg">
<g clip-path="url(#clip0_7203_559)">
<path d="M265.836 118.339H251.111V59.2455H236.386V74.0674H206.839V59.2455H103.473V74.0674H73.9262V59.2455H59.2012V103.517H73.9262V118.339H88.7481V133.064H177.292V147.886H73.9262V162.611H192.017V206.883H221.564V177.336H236.386V162.611H251.111V133.064H265.836V265.977H280.657V44.5205H265.836V118.339Z" fill="#FF008A"/>
<path d="M265.825 265.979H251.1V280.704H265.825V265.979Z" fill="#FF008A"/>
<path d="M265.825 29.7949H251.1V44.5199H265.825V29.7949Z" fill="#FF008A"/>
<path d="M251.104 280.705H236.379V295.43H251.104V280.705Z" fill="#FF008A"/>
<path d="M251.104 14.9746H236.379V29.7965H251.104V14.9746Z" fill="#FF008A"/>
<path d="M236.384 44.5205H221.562V59.2455H236.384V44.5205Z" fill="#FF008A"/>
<path d="M236.381 295.43H73.9219V310.252H236.381V295.43Z" fill="#FF008A"/>
<path d="M147.737 221.61H133.012V251.157H147.737V221.61Z" fill="#FF008A"/>
<path d="M118.283 206.886H103.461V265.979H118.283V206.886Z" fill="#FF008A"/>
<path d="M221.554 29.7949H88.7383V44.5199H221.554V29.7949Z" fill="#FF008A"/>
<path d="M236.381 0.25H73.9219V14.975H236.381V0.25Z" fill="#FF008A"/>
<path d="M88.7438 192.16H73.9219V251.157H88.7438V192.16Z" fill="#FF008A"/>
<path d="M88.7438 44.5205H73.9219V59.2455H88.7438V44.5205Z" fill="#FF008A"/>
<path d="M73.9262 280.705H59.2012V295.43H73.9262V280.705Z" fill="#FF008A"/>
<path d="M73.9262 133.065H59.2012V147.887H73.9262V133.065Z" fill="#FF008A"/>
<path d="M73.9262 14.9746H59.2012V29.7965H73.9262V14.9746Z" fill="#FF008A"/>
<path d="M59.1879 265.979H44.4629V280.704H59.1879V265.979Z" fill="#FF008A"/>
<path d="M59.1879 29.7949H44.4629V44.5199H59.1879V29.7949Z" fill="#FF008A"/>
<path d="M44.4723 133.064H59.1973V118.339H44.4723V44.5205H29.6504V265.977H44.4723V133.064Z" fill="#FF008A"/>
</g>
<defs>
<clipPath id="clip0_7203_559">
<rect width="310" height="310" fill="white" transform="translate(0.150391 0.25)"/>
</clipPath>
</defs>
</svg>
