<svg width="12" height="16" viewBox="0 0 12 16" fill="none" xmlns="http://www.w3.org/2000/svg">
<path d="M3.18937 0.0531572H4.78405V1.64784H3.18937V0.0531572ZM1.59468 0.0531572H3.18937V1.64784H1.59468V0.0531572ZM1.59468 1.64784H3.18937V3.24253H1.59468V1.64784ZM3.18937 1.64784H4.78405V3.24253H3.18937V1.64784ZM4.78405 1.64784H6.37874V3.24253H4.78405V1.64784ZM4.78405 0.0531572H6.37874V1.64784H4.78405V0.0531572ZM6.37874 0.0531572H7.97342V1.64784H6.37874V0.0531572ZM7.97342 0.0531572H9.56811V1.64784H7.97342V0.0531572ZM7.97342 1.64784H9.56811V3.24253H7.97342V1.64784ZM6.37874 1.64784H7.97342V3.24253H6.37874V1.64784ZM7.97342 3.24253H9.56811V4.83721H7.97342V3.24253ZM9.56811 1.64784H11.1628V3.24253H9.56811V1.64784ZM9.56811 3.24253H11.1628V4.83721H9.56811V3.24253ZM9.56811 11.2159H11.1628V12.8106H9.56811V11.2159ZM9.56811 12.8106H11.1628V14.4053H9.56811V12.8106ZM7.97342 12.8106H9.56811V14.4053H7.97342V12.8106ZM7.97342 11.2159H9.56811V12.8106H7.97342V11.2159ZM6.37874 12.8106H7.97342V14.4053H6.37874V12.8106ZM7.97342 14.4053H9.56811V16H7.97342V14.4053ZM6.37874 14.4053H7.97342V16H6.37874V14.4053ZM4.78405 14.4053H6.37874V16H4.78405V14.4053ZM4.78405 12.8106H6.37874V14.4053H4.78405V12.8106ZM3.18937 14.4053H4.78405V16H3.18937V14.4053ZM1.59468 14.4053H3.18937V16H1.59468V14.4053ZM1.59468 12.8106H3.18937V14.4053H1.59468V12.8106ZM3.18937 12.8106H4.78405V14.4053H3.18937V12.8106ZM3.18937 11.2159H4.78405V12.8106H3.18937V11.2159ZM1.59468 11.2159H3.18937V12.8106H1.59468V11.2159ZM0 12.8106H1.59468V14.4053H0V12.8106ZM0 11.2159H1.59468V12.8106H0V11.2159ZM0 9.62126H1.59468V11.2159H0V9.62126ZM0 8.02658H1.59468V9.62126H0V8.02658ZM0 6.43189H1.59468V8.02658H0V6.43189ZM0 4.83721H1.59468V6.43189H0V4.83721ZM0 3.24253H1.59468V4.83721H0V3.24253ZM1.59468 3.24253H3.18937V4.83721H1.59468V3.24253ZM0 1.64784H1.59468V3.24253H0V1.64784ZM3.18937 3.24253H4.78405V4.83721H3.18937V3.24253ZM1.59468 4.83721H3.18937V6.43189H1.59468V4.83721ZM1.59468 6.43189H3.18937V8.02658H1.59468V6.43189ZM1.59468 8.02658H3.18937V9.62126H1.59468V8.02658ZM1.59468 9.62126H3.18937V11.2159H1.59468V9.62126Z" fill="#FF008A"/>
</svg>
