<svg width="440" height="450" viewBox="0 0 440 450" fill="none" xmlns="http://www.w3.org/2000/svg">
<g clip-path="url(#clip0_7193_20166)">
<path d="M328.639 101.475H343.079V86.94H357.519V72.5H270.689V86.94H328.639V101.475Z" fill="#FF008A"/>
<path d="M328.644 101.473H314.109V115.913H328.644V101.473Z" fill="#FF008A"/>
<path d="M314.094 115.914H299.654V130.449H314.094V115.914Z" fill="#FF008A"/>
<path d="M299.661 130.452H285.221V144.892H299.661V130.452Z" fill="#FF008A"/>
<path d="M285.224 144.891H270.689V173.866H285.224V144.891Z" fill="#FF008A"/>
<path d="M285.224 101.473H270.689V115.913H285.224V101.473Z" fill="#FF008A"/>
<path d="M270.674 173.864H256.234V188.304H270.674V173.864Z" fill="#FF008A"/>
<path d="M270.674 115.914H256.234V130.449H270.674V115.914Z" fill="#FF008A"/>
<path d="M270.684 86.9395H241.709V101.474H270.684V86.9395Z" fill="#FF008A"/>
<path d="M256.244 130.452H241.709V144.892H256.244V130.452Z" fill="#FF008A"/>
<path d="M256.248 188.304H227.273V202.839H256.248V188.304Z" fill="#FF008A"/>
<path d="M241.713 144.891H227.273V159.331H241.713V144.891Z" fill="#FF008A"/>
<path d="M241.713 101.473H227.273V115.913H241.713V101.473Z" fill="#FF008A"/>
<path d="M97.0291 376.498H227.274V362.058H241.714V304.108H227.274V318.643H154.884V304.108H125.957V289.668H97.0291V304.108H82.4941V362.058H97.0291V376.498ZM111.469 318.643H125.957V347.523H154.932V362.058H125.957V347.523H111.469V318.643Z" fill="#FF008A"/>
<path d="M227.278 159.332H212.838V173.867H227.278V159.332Z" fill="#FF008A"/>
<path d="M227.278 115.914H212.838V130.449H227.278V115.914Z" fill="#FF008A"/>
<path d="M227.266 289.668H198.291V304.108H227.266V289.668Z" fill="#FF008A"/>
<path d="M227.275 202.839H198.3V188.304H183.86V173.864H169.42V217.279H227.275V202.839Z" fill="#FF008A"/>
<path d="M212.826 173.864H198.291V188.304H212.826V173.864Z" fill="#FF008A"/>
<path d="M212.826 130.452H198.291V144.892H212.826V130.452Z" fill="#FF008A"/>
<path d="M198.297 144.891H183.857V173.866H198.297V144.891Z" fill="#FF008A"/>
<path d="M140.452 260.697H183.867V289.672H198.307V260.697H212.842V246.257H169.427V217.282H154.892V246.257H111.477V260.697H125.917V289.672H140.452V260.697Z" fill="#FF008A"/>
</g>
<defs>
<clipPath id="clip0_7193_20166">
<rect width="304" height="304" fill="white" transform="translate(68 72.5)"/>
</clipPath>
</defs>
</svg>
