<svg width="579" height="566" viewBox="0 0 579 566" fill="none" xmlns="http://www.w3.org/2000/svg">
<g clip-path="url(#clip0_7193_20353)">
<path d="M434.602 266.181L420.562 269.943L450.535 381.802L464.575 378.04L434.602 266.181Z" fill="#FF008A"/>
<path d="M415.891 196.35L401.852 200.112L405.589 214.06L419.629 210.298L415.891 196.35Z" fill="#FF008A"/>
<path d="M405.592 214.06L391.645 217.797L395.382 231.745L409.33 228.008L405.592 214.06Z" fill="#FF008A"/>
<path d="M398.094 186.074L384.146 189.812L387.908 203.851L401.856 200.114L398.094 186.074Z" fill="#FF008A"/>
<path d="M450.546 381.803L226.828 441.749L230.59 455.788L454.308 395.843L450.546 381.803Z" fill="#FF008A"/>
<path d="M395.391 231.743L381.352 235.505L385.113 249.545L399.153 245.783L395.391 231.743Z" fill="#FF008A"/>
<path d="M380.417 175.861L366.377 179.623L370.114 193.571L384.154 189.809L380.417 175.861Z" fill="#FF008A"/>
<path d="M410.392 287.719L340.469 306.455L362.942 390.326L432.865 371.59L410.392 287.719ZM415.088 361.404L373.153 372.641L358.154 316.665L400.09 305.429L415.088 361.404Z" fill="#FF008A"/>
<path d="M374.907 267.228L360.959 270.965L357.222 257.017L371.17 253.28L367.408 239.24L381.356 235.503L377.618 221.555L391.658 217.793L387.921 203.845L373.881 207.607L370.119 193.567L356.171 197.305L352.434 183.357L338.486 187.094L334.724 173.054L320.684 176.816L324.446 190.856L310.498 194.593L314.235 208.541L300.287 212.279L304.049 226.318L290.01 230.08L293.747 244.028L307.787 240.266L311.524 254.214L325.472 250.477L329.234 264.517L343.182 260.779L346.919 274.727L304.984 285.964L301.246 272.016L287.298 275.753L283.536 261.714L269.497 265.475L273.259 279.515L259.311 283.253L263.048 297.201L249.1 300.938L245.363 286.99L231.323 290.752L235.06 304.7L179.177 319.674L186.676 347.661L200.624 343.924L196.862 329.884L420.58 269.939L416.843 255.991L388.855 263.491L385.118 249.543L371.17 253.28L374.907 267.228Z" fill="#FF008A"/>
<path d="M362.618 165.58L348.67 169.317L352.432 183.357L366.38 179.619L362.618 165.58Z" fill="#FF008A"/>
<path d="M344.921 155.373L330.973 159.11L334.71 173.058L348.658 169.32L344.921 155.373Z" fill="#FF008A"/>
<path d="M327.239 145.16L313.199 148.922L316.937 162.87L330.976 159.108L327.239 145.16Z" fill="#FF008A"/>
<path d="M316.944 162.869L302.996 166.606L306.733 180.554L320.681 176.817L316.944 162.869Z" fill="#FF008A"/>
<path d="M306.718 180.559L292.77 184.296L296.531 198.336L310.479 194.598L306.718 180.559Z" fill="#FF008A"/>
<path d="M296.54 198.335L282.5 202.097L286.237 216.045L300.277 212.283L296.54 198.335Z" fill="#FF008A"/>
<path d="M326.511 310.194L256.588 328.93L279.061 412.802L348.985 394.066L326.511 310.194ZM331.207 383.88L289.272 395.116L274.273 339.141L316.209 327.904L331.207 383.88Z" fill="#FF008A"/>
<path d="M265.757 251.529L279.796 247.767L276.059 233.819L290.007 230.082L286.245 216.042L272.297 219.78L253.561 149.856L239.521 153.618L265.757 251.529Z" fill="#FF008A"/>
<path d="M265.745 251.532L251.797 255.27L255.534 269.218L269.482 265.48L265.745 251.532Z" fill="#FF008A"/>
<path d="M255.536 269.217L241.588 272.954L245.35 286.994L259.298 283.256L255.536 269.217Z" fill="#FF008A"/>
<path d="M167.939 277.739L175.439 305.726L189.387 301.989L185.625 287.949L241.6 272.951L237.863 259.003L167.939 277.739Z" fill="#FF008A"/>
<path d="M250.042 360.679L236.094 364.417L243.568 392.312L257.516 388.575L250.042 360.679Z" fill="#FF008A"/>
<path d="M232.341 350.377L204.354 357.876L208.115 371.916L236.103 364.417L232.341 350.377Z" fill="#FF008A"/>
<path d="M243.578 392.311L215.59 399.81L219.352 413.85L247.339 406.351L243.578 392.311Z" fill="#FF008A"/>
<path d="M248.072 241.316L229.336 171.393L145.465 193.866L164.201 263.79L248.072 241.316ZM163.15 204.077L219.126 189.078L230.362 231.014L174.387 246.012L163.15 204.077Z" fill="#FF008A"/>
<path d="M223.096 427.799L209.148 431.536L212.886 445.484L226.834 441.747L223.096 427.799Z" fill="#FF008A"/>
<path d="M208.122 371.912L194.174 375.649L201.649 403.545L215.596 399.808L208.122 371.912Z" fill="#FF008A"/>
<path d="M235.775 139.673L123.916 169.646L127.653 183.593L239.512 153.621L235.775 139.673Z" fill="#FF008A"/>
<path d="M205.401 417.591L191.361 421.353L195.099 435.301L209.138 431.539L205.401 417.591Z" fill="#FF008A"/>
<path d="M176.365 365.375L190.405 361.613L186.668 347.665L172.628 351.427L127.657 183.592L113.709 187.33L177.416 425.087L191.364 421.35L176.365 365.375Z" fill="#FF008A"/>
</g>
<defs>
<clipPath id="clip0_7193_20353">
<rect width="304" height="304" fill="white" transform="translate(103 175.25) rotate(-15)"/>
</clipPath>
</defs>
</svg>
