<svg width="376" height="411" viewBox="0 0 376 411" fill="none" xmlns="http://www.w3.org/2000/svg">
<g clip-path="url(#clip0_7203_906)">
<path d="M306.961 232.623H292.617V304.061H306.961V232.623Z" fill="#FF008A"/>
<path d="M292.604 304.062H278.354V332.655H292.604V304.062Z" fill="#FF008A"/>
<path d="M292.604 204.031H278.354V232.625H292.604V204.031Z" fill="#FF008A"/>
<path d="M278.357 332.658H264.107V346.908H278.357V332.658Z" fill="#FF008A"/>
<path d="M278.357 189.781H264.107V204.031H278.357V189.781Z" fill="#FF008A"/>
<path d="M264.113 232.623H249.77V246.967H264.113V232.623Z" fill="#FF008A"/>
<path d="M264.113 175.531H249.77V189.781H264.113V175.531Z" fill="#FF008A"/>
<path d="M264.111 346.908H106.893V361.252H264.111V346.908Z" fill="#FF008A"/>
<path d="M249.76 161.189H221.166V175.533H249.76V161.189Z" fill="#FF008A"/>
<path d="M221.174 204.031H206.924V218.375H221.174V204.031Z" fill="#FF008A"/>
<path d="M192.666 246.969H178.322V261.219H192.666V246.969Z" fill="#FF008A"/>
<path d="M164.084 204.031H149.834V218.375H164.084V204.031Z" fill="#FF008A"/>
<path d="M164.072 75.5H206.916V161.188H221.166V75.5H235.51V61.25H135.479V75.5H149.822V161.188H164.072V75.5Z" fill="#FF008A"/>
<path d="M149.824 161.189H121.23V175.533H149.824V161.189Z" fill="#FF008A"/>
<path d="M135.48 232.623H121.23V246.967H135.48V232.623Z" fill="#FF008A"/>
<path d="M106.896 318.314H121.24V332.658H249.771V318.314H264.115V304.064H278.365V275.47H264.115V261.22H235.521V275.47H221.178V289.814H178.334V275.47H149.834V261.22H106.896V275.47H92.6465V304.064H106.896V318.314Z" fill="#FF008A"/>
<path d="M121.236 175.531H106.893V189.781H121.236V175.531Z" fill="#FF008A"/>
<path d="M106.896 332.658H92.6465V346.908H106.896V332.658Z" fill="#FF008A"/>
<path d="M106.896 189.781H92.6465V204.031H106.896V189.781Z" fill="#FF008A"/>
<path d="M92.6328 304.062H78.3828V332.655H92.6328V304.062Z" fill="#FF008A"/>
<path d="M92.6328 204.031H78.3828V232.625H92.6328V204.031Z" fill="#FF008A"/>
<path d="M78.3906 232.623H64.0469V304.061H78.3906V232.623Z" fill="#FF008A"/>
</g>
<defs>
<clipPath id="clip0_7203_906">
<rect width="300" height="300" fill="white" transform="translate(35.5 61.25)"/>
</clipPath>
</defs>
</svg>
