<svg width="32" height="32" viewBox="0 0 32 32" fill="none" xmlns="http://www.w3.org/2000/svg">
<g clip-path="url(#clip0_7242_741)">
<path d="M32.0007 12.1899H30.4707V16.7599H32.0007V12.1899Z" fill="#FF008A"/>
<path d="M30.4692 16.7598H28.9492V19.8098H30.4692V16.7598Z" fill="#FF008A"/>
<path d="M30.4699 10.6699H27.4199V12.1899H30.4699V10.6699Z" fill="#FF008A"/>
<path d="M28.9499 19.8101H27.4199V21.3301H28.9499V19.8101Z" fill="#FF008A"/>
<path d="M27.4204 28.9502H25.9004V30.4802H27.4204V28.9502Z" fill="#FF008A"/>
<path d="M25.9009 13.7099H27.4209V12.1899H25.9009V10.6699H24.3809V22.8599H27.4209V21.3299H25.9009V13.7099Z" fill="#FF008A"/>
<path d="M25.8995 30.48H1.51953V32H25.8995V30.48Z" fill="#FF008A"/>
<path d="M24.3796 22.8599H22.8496V25.9099H24.3796V22.8599Z" fill="#FF008A"/>
<path d="M21.3295 27.4302H6.08953V25.9102H4.56953V27.4302H1.51953V28.9502H25.8995V27.4302H22.8495V25.9102H21.3295V27.4302Z" fill="#FF008A"/>
<path d="M19.8093 4.56982H18.2793V6.09982H19.8093V4.56982Z" fill="#FF008A"/>
<path d="M18.2798 6.1001H16.7598V7.6201H18.2798V6.1001Z" fill="#FF008A"/>
<path d="M18.2798 3.0498H16.7598V4.5698H18.2798V3.0498Z" fill="#FF008A"/>
<path d="M18.2798 0H16.7598V1.52H18.2798V0Z" fill="#FF008A"/>
<path d="M16.7605 1.52002H15.2305V3.05002H16.7605V1.52002Z" fill="#FF008A"/>
<path d="M13.7095 4.56982H12.1895V6.09982H13.7095V4.56982Z" fill="#FF008A"/>
<path d="M12.1902 6.1001H10.6602V7.6201H12.1902V6.1001Z" fill="#FF008A"/>
<path d="M12.1902 3.0498H10.6602V4.5698H12.1902V3.0498Z" fill="#FF008A"/>
<path d="M12.1902 0H10.6602V1.52H12.1902V0Z" fill="#FF008A"/>
<path d="M10.6606 1.52002H9.14062V3.05002H10.6606V1.52002Z" fill="#FF008A"/>
<path d="M7.60906 10.6701V15.2401H6.08906V19.8101H7.60906V21.3301H10.6591V19.8101H12.1891V15.2401H10.6591V18.2901H9.13906V15.2401H10.6591V13.7101H9.13906V10.6701H24.3791V9.14014H3.03906V10.6701H7.60906Z" fill="#FF008A"/>
<path d="M4.56906 22.8599H3.03906V25.9099H4.56906V22.8599Z" fill="#FF008A"/>
<path d="M3.03953 10.6699H1.51953V22.8599H3.03953V10.6699Z" fill="#FF008A"/>
<path d="M1.52 28.9502H0V30.4802H1.52V28.9502Z" fill="#FF008A"/>
</g>
<defs>
<clipPath id="clip0_7242_741">
<rect width="32" height="32" fill="white"/>
</clipPath>
</defs>
</svg>
